<?xml version="1.0" encoding="utf-8"?>
<svg version="1.1" id="Layer_1" xmlns="http://www.w3.org/2000/svg" xmlns:xlink="http://www.w3.org/1999/xlink" x="0px" y="0px" viewBox="0 0 50 50" style="enable-background:new 0 0 50 50;" xml:space="preserve" width="46">
<style type="text/css">
	.st0{fill:#FFFFFF;}
	.st1{fill:url(#SVGID_1_);}
	.st2{fill:url(#SVGID_2_);}
	.st3{fill:url(#SVGID_3_);}
	.st4{fill:url(#SVGID_4_);}
	.st5{fill:url(#SVGID_5_);}
	.st6{fill:url(#SVGID_6_);}
	.st7{fill:url(#SVGID_7_);}
	.st8{fill:#F8E83D;}
	.st9{fill:url(#SVGID_8_);}
	.st10{fill:#F7941E;}
	.st11{fill:#DD7A0E;}
	.st12{opacity:0.5;}
</style>
<g>
	<circle class="st0" cx="25" cy="25" r="23"/>
	
		<linearGradient id="SVGID_1_" gradientUnits="userSpaceOnUse" x1="358.6047" y1="3" x2="358.6047" y2="47" gradientTransform="matrix(-1 0 0 -1 383.6049 50)">
		<stop  offset="0" style="stop-color:#5558FF"/>
		<stop  offset="1" style="stop-color:#00C0FF"/>
	</linearGradient>
	<circle class="st1" cx="25" cy="25" r="22"/>
	<g>
		<g>
			<path class="st0" d="M20.3,24.6c0.9,0,1.7,0,2.6,0c0.5,0,0.7,0.2,0.8,0.6c0.1,0.5-0.2,0.8-0.7,0.8c-1,0-1.9,0-2.9,0
				c-0.3,0-0.6,0-0.8,0c-0.3,0-0.7-0.1-0.8-0.4c-0.2-0.4-0.1-0.7,0.2-1c0.9-1.2,1.8-2.3,2.7-3.5c0.1-0.1,0.1-0.1,0.2-0.2
				c-0.1-0.1-0.1-0.1-0.2-0.1c-0.6,0-1.3,0-1.9,0c-0.1,0-0.3,0-0.4,0c-0.3-0.1-0.5-0.3-0.5-0.6c0-0.3,0.2-0.5,0.5-0.6
				c0.1,0,0.3-0.1,0.4-0.1c1.1,0,2.1,0,3.2,0c0.2,0,0.4,0,0.6,0.1c0.4,0.1,0.6,0.5,0.4,0.9c-0.1,0.3-0.4,0.6-0.6,0.9
				c-0.8,1-1.6,2-2.3,3C20.5,24.4,20.4,24.5,20.3,24.6z"/>
			<path class="st0" d="M27.2,21.5c0.1-0.2,0.3-0.4,0.5-0.4c0.5-0.1,0.9,0.2,0.9,0.7c0,1.2,0,2.4,0,3.6c0,0.3-0.2,0.6-0.5,0.7
				c-0.3,0.1-0.6,0-0.8-0.2c-0.1-0.1-0.1-0.1-0.3,0c-0.5,0.4-1.1,0.5-1.8,0.3c-1.1-0.3-1.5-1.2-1.6-2.2c-0.1-1.1,0.2-2,1.2-2.6
				C25.7,20.8,26.5,20.9,27.2,21.5z M25.1,23.7c0,0.2,0.1,0.5,0.2,0.7c0.4,0.5,1.2,0.5,1.6,0c0.3-0.4,0.3-1.2,0-1.6
				c-0.2-0.2-0.4-0.4-0.7-0.4C25.6,22.3,25.1,22.9,25.1,23.7z"/>
			<path class="st0" d="M30.8,22.5c0,0.9,0,1.8,0,2.8c0,0.5-0.5,0.9-1,0.8c-0.3-0.1-0.5-0.4-0.5-0.8c0-1.6,0-3.1,0-4.7
				c0-0.3,0-0.6,0-0.8c0-0.5,0.3-0.8,0.7-0.8c0.5,0,0.8,0.3,0.8,0.8C30.8,20.7,30.8,21.6,30.8,22.5z"/>
			<path class="st0" d="M36.4,23.5c0-1.5-1.2-2.5-2.7-2.4c-1.4,0-2.4,1.2-2.4,2.7c0,1.5,1.2,2.6,2.7,2.4C35.5,26,36.4,25,36.4,23.5z
				 M34.6,24.4c-0.4,0.5-1.2,0.5-1.5,0c-0.2-0.2-0.3-0.5-0.3-0.8c0-0.7,0.4-1.2,1.1-1.2c0.3,0,0.5,0.1,0.7,0.4
				C34.9,23.2,34.9,24,34.6,24.4z"/>
		</g>
		<path class="st0" d="M27.9,35.3c-1.6,0-3.1-0.2-4.6-0.7l0,0c0,0-0.8-0.3-1.2-0.3c-1.5,0-2.2,1-4.6,1c-1.5,0-1.9-0.3-1.9-0.3
			s2.5-1.3,2.5-2.9c0-0.2-0.2-0.5-0.3-0.7c-0.1-0.1-0.2-0.2-0.4-0.4c0,0,0,0,0,0l0,0c-2.1-2.2-3.3-4.9-3.3-8c0-4.7,3-8.8,7.4-10.9
			h-6.3c-2,0-3.7,1.7-3.7,3.7v18.5c0,2,1.7,3.7,3.7,3.7h19.8c2,0,3.7-1.7,3.7-3.7v-3.5C36,33.5,32.2,35.3,27.9,35.3z"/>
	</g>
</g>
</svg>
