<?xml version="1.0" encoding="utf-8"?>
<!-- Generator: Adobe Illustrator 22.0.0, SVG Export Plug-In . SVG Version: 6.00 Build 0)  -->
<svg version="1.1" id="Layer_1" xmlns="http://www.w3.org/2000/svg" xmlns:xlink="http://www.w3.org/1999/xlink" x="0px" y="0px" viewBox="0 0 50 50" style="enable-background:new 0 0 50 50;" xml:space="preserve" width="46">
<style type="text/css">
	.st0{fill:#FFFFFF;}
	.st1{fill:url(#SVGID_1_);}
	.st2{fill:url(#SVGID_2_);}
	.st3{fill:url(#SVGID_3_);}
	.st4{fill:url(#SVGID_4_);}
	.st5{fill:url(#SVGID_5_);}
	.st6{fill:url(#SVGID_6_);}
	.st7{fill:#F7941E;}
	.st8{fill:#DD7A0E;}
	.st9{opacity:0.5;}
</style>
<g>
	<g>
		<circle class="st0" cx="25" cy="25" r="22"/>
		<linearGradient id="SVGID_1_" gradientUnits="userSpaceOnUse" x1="4" y1="25" x2="46" y2="25">
			<stop  offset="0" style="stop-color:#4FBE00"/>
			<stop  offset="1" style="stop-color:#008000"/>
		</linearGradient>
		<circle class="st1" cx="25" cy="25" r="21"/>
		<g>
			<g>
				<path class="st0" d="M34.4,28.5c-1.4,0-2.7-0.2-4-0.6c-0.6-0.2-1.3,0-1.7,0.4l-2.5,1.9c-2.9-1.5-4.7-3.4-6.3-6.3l1.9-2.5
					c0.5-0.5,0.6-1.1,0.4-1.8c-0.4-1.3-0.6-2.6-0.6-4c0-1-0.8-1.8-1.8-1.8h-4.1c-1,0-1.8,0.8-1.8,1.8c0,11.3,9.2,20.5,20.5,20.5
					c1,0,1.8-0.8,1.8-1.8v-4.1C36.1,29.3,35.3,28.5,34.4,28.5z"/>
			</g>
		</g>
	</g>
</g>
</svg>
