<?xml version="1.0" encoding="utf-8"?>
<!-- Generator: Adobe Illustrator 22.0.0, SVG Export Plug-In . SVG Version: 6.00 Build 0)  -->
<svg version="1.1" xmlns="http://www.w3.org/2000/svg" xmlns:xlink="http://www.w3.org/1999/xlink" x="0px" y="0px" viewBox="0 0 50 50" style="enable-background:new 0 0 50 50;" xml:space="preserve" width="46">
<style type="text/css">
	.st0{fill:#FFFFFF;}
	.st1{fill:url(#SVGID_1_);}
	.st2{fill:url(#SVGID_2_);}
	.st3{fill:url(#SVGID_3_);}
	.st4{fill:url(#SVGID_4_);}
	.st5{fill:url(#SVGID_5_);}
	.st6{fill:url(#SVGID_6_);}
	.st7{fill:#F7941E;}
	.st8{fill:#DD7A0E;}
	.st9{opacity:0.5;}
</style>
<g>
	<circle class="st0" cx="25" cy="25" r="22"/>
	<linearGradient id="SVGID_1_" gradientUnits="userSpaceOnUse" x1="4.0001" y1="25" x2="46.0001" y2="25">
		<stop  offset="0" style="stop-color:#5558FF"/>
		<stop  offset="1" style="stop-color:#00C0FF"/>
	</linearGradient>
	<circle class="st1" cx="25" cy="25" r="21"/>
	<g>
		<g>
			<path class="st0" d="M25,12c-7.7,0-14,5.8-14,13c0,4.1,2,7.7,5.2,10.1V40l4.8-2.6c1.3,0.4,2.6,0.5,4,0.5c7.7,0,14-5.8,14-13
				S32.7,12,25,12z M26.4,29.5l-3.6-3.8l-7,3.8l7.6-8.1l3.7,3.8l6.9-3.8L26.4,29.5z"/>
		</g>
	</g>
</g>
</svg>
